<?xml version="1.0" encoding="utf-8"?>
<!-- Generator: Adobe Illustrator 19.2.1, SVG Export Plug-In . SVG Version: 6.00 Build 0)  -->
<svg version="1.1" id="Layer_1" xmlns="http://www.w3.org/2000/svg" xmlns:xlink="http://www.w3.org/1999/xlink" x="0px" y="0px"
	 viewBox="0 0 50 50" style="enable-background:new 0 0 50 50;" xml:space="preserve">
<style type="text/css">
	.st0{fill:#030000;}
</style>
<g>
	<path class="st0" d="M31.5,22.1c-9.3,4.1-12.3,2.7-16.4,3c-2.6,0.1-6,0.6-6.2,2.2c-0.1,0.6,0.1,1.1,0.4,1.5
		c0.8,0.9,2.5,1.3,3.5,1.4c1.2,0.1,13.4,0.5,13.6,0.5l0,1.2c-0.1,0-12.3-0.5-13.6-0.5c-1.1,0-3.2-0.5-4.3-1.8
		c-0.6-0.7-0.8-1.5-0.7-2.4C8,25,11,24.3,13.6,24.1l-5.7-5c0,0-1-0.8-1.7-0.8c0,0-1.5-1.4-2.7-0.3c0,0-2.3-0.9-2.8-0.4
		c-0.5,0.5,0,1.9,0,1.9s-0.8,0.4-0.5,1.2s6.5,8.7,9.2,11s7.9,5.5,8.9,6.3c1,0.8,3.2,2.5,8.2,0.4c5-2.1,11.2-3.8,16.3-1.7l7.4-9.9
		C49.9,26.6,42,17.6,31.5,22.1z"/>
	<path class="st0" d="M17.8,23.7c2.6,0.1,5.4,0.1,10.7-1.8v-2.3H15.1v4.1l0.1,0C15.9,23.7,16.9,23.7,17.8,23.7z"/>
	<rect x="15.1" y="15.5" class="st0" width="13.4" height="2"/>
	<rect x="15.1" y="11.2" class="st0" width="13.4" height="2"/>
</g>
</svg>
